# This file uses centimeters as units for non-parametric coordinates.

mtllib fish.mtl
g default
v -4.877274 1.128326 6.736001
v -0.000000 0.734569 -10.184745
v -1.843383 0.986044 4.606812
v -0.630346 1.501943 2.885798
v -0.000000 0.299182 -0.704571
v -1.058626 0.809970 9.268210
v -0.456083 0.852007 -0.577374
v -0.145959 0.764246 -5.382733
v -4.864738 1.023272 2.701070
v -6.925750 1.523754 5.121307
v -4.868070 1.260171 6.579171
v -0.000000 0.190017 10.184745
v -1.031728 0.818170 -1.006880
v -0.198060 0.580359 -5.393144
v -1.308832 0.296301 9.592738
v -1.966318 0.755061 8.911214
v -3.227736 1.087336 4.869502
v -2.670721 1.051848 8.265736
v -4.865630 1.448817 4.673159
v -0.000000 0.028358 9.163918
v -0.926927 1.612836 6.677990
v -0.000000 1.692669 6.778653
v -2.806555 0.943477 8.371119
v -1.032638 0.889867 -1.048533
v -0.000000 1.786611 4.673161
v -0.757975 1.659188 4.673160
v -0.000000 1.063605 -0.823223
v -1.221817 0.787190 6.728895
v -1.064986 1.327445 8.139085
v -4.865744 1.260908 4.917629
v -0.476985 0.639468 -0.841394
v -0.000000 1.481289 8.139086
v -0.348696 0.219500 7.101360
v -0.000000 0.832105 9.871385
v -0.000000 0.865879 -5.387848
v -3.271228 0.919574 1.225703
v -0.000000 1.621843 2.875921
v -0.000000 0.135761 7.134939
v -0.000000 0.572985 -5.393483
v -2.181468 1.365470 2.867207
v -2.550432 1.490511 6.572654
v -2.380325 1.553313 4.673159
v -3.233253 0.985044 1.233108
v -1.889612 0.934651 8.783051
v -0.798230 0.745306 4.731337
v -0.256582 0.277282 4.810226
v -0.000000 0.199622 4.844220
v -1.203702 0.883596 1.226740
v -0.379307 0.510741 1.237487
v -0.093877 0.302340 1.243494
v -0.000000 0.269500 1.244441
v -1.850936 1.164923 1.207930
v -0.554468 1.227206 1.199212
v -0.000000 1.391289 1.176245
v -2.195650 0.968617 6.164392
v -4.841491 1.043158 2.721420
v -6.789866 1.518812 5.091748
v 4.877274 1.128326 6.736001
v 1.843383 0.986044 4.606812
v 0.630346 1.501943 2.885798
v 1.058626 0.809970 9.268210
v 0.456083 0.852007 -0.577374
v 0.145959 0.764246 -5.382733
v 4.864738 1.023272 2.701070
v 6.925750 1.523754 5.121307
v 4.868070 1.260171 6.579171
v 1.031728 0.818170 -1.006880
v 0.198060 0.580359 -5.393144
v 1.308832 0.296301 9.592738
v 1.966318 0.755061 8.911214
v 3.227736 1.087336 4.869502
v 2.670721 1.051848 8.265736
v 4.865630 1.448817 4.673159
v 0.926927 1.612836 6.677990
v 2.806555 0.943477 8.371119
v 1.032638 0.889867 -1.048533
v 0.757975 1.659188 4.673160
v 1.221817 0.787190 6.728895
v 1.064986 1.327445 8.139085
v 4.865744 1.260908 4.917629
v 0.476985 0.639468 -0.841394
v 0.348696 0.219500 7.101360
v 3.271228 0.919574 1.225703
v 2.181468 1.365470 2.867207
v 2.550432 1.490511 6.572654
v 2.380325 1.553313 4.673159
v 3.233253 0.985044 1.233108
v 1.889612 0.934651 8.783051
v 0.798230 0.745306 4.731337
v 0.256582 0.277282 4.810226
v 1.203702 0.883596 1.226740
v 0.379307 0.510741 1.237487
v 0.093877 0.302340 1.243494
v 1.850936 1.164923 1.207930
v 0.554468 1.227206 1.199212
v 2.195650 0.968617 6.164392
v 4.841491 1.043158 2.721420
v 6.789866 1.518812 5.091748
v -0.301021 0.808126 -2.980054
v -0.337522 0.609913 -3.117269
v -0.000000 0.436083 -3.049027
v 0.337522 0.609913 -3.117269
v 0.301021 0.808126 -2.980054
v -0.000000 0.964742 -3.105535
vt 0.750806 0.542394
vt 0.714556 0.541620
vt 0.735464 0.402521
vt 0.778077 0.407720
vt 0.833434 0.397241
vt 0.791665 0.345553
vt 0.700397 0.541194
vt 0.707061 0.398672
vt 0.704332 0.806499
vt 0.696411 0.998000
vt 0.696411 0.806451
vt 0.274308 0.651197
vt 0.282781 0.844175
vt 0.266652 0.652015
vt 0.238227 0.098846
vt 0.173642 0.090595
vt 0.204740 0.068883
vt 0.243655 0.158541
vt 0.250218 0.238624
vt 0.184751 0.237910
vt 0.178450 0.161372
vt 0.899146 0.395275
vt 0.982120 0.387069
vt 0.897978 0.484501
vt 0.259346 0.457035
vt 0.267340 0.554503
vt 0.259702 0.560558
vt 0.251828 0.469439
vt 0.237785 0.048692
vt 0.200594 0.060325
vt 0.225432 0.024678
vt 0.780568 0.235615
vt 0.752019 0.323099
vt 0.710817 0.306926
vt 0.749666 0.207071
vt 0.898836 0.322294
vt 0.231852 0.465098
vt 0.206811 0.377697
vt 0.257972 0.380494
vt 0.085457 0.158889
vt 0.084315 0.150682
vt 0.167745 0.084980
vt 0.255270 0.310650
vt 0.192752 0.311011
vt 0.002000 0.217072
vt 0.007433 0.218305
vt 0.696411 0.183318
vt 0.696411 0.224434
vt 0.833603 0.543190
vt 0.229934 0.467163
vt 0.147373 0.378785
vt 0.149969 0.377213
vt 0.281085 0.155106
vt 0.281046 0.238682
vt 0.281014 0.559211
vt 0.280826 0.466298
vt 0.280969 0.310666
vt 0.281114 0.101068
vt 0.084703 0.236368
vt 0.084986 0.316664
vt 0.281158 0.029998
vt 0.281467 0.651215
vt 0.696411 0.541133
vt 0.696411 0.397236
vt 0.281181 0.002000
vt 0.280825 0.380908
vt 0.696411 0.305455
vt 0.711499 0.715699
vt 0.696411 0.712557
vt 0.696411 0.618891
vt 0.719675 0.624883
vt 0.742944 0.631613
vt 0.815222 0.257128
vt 0.083904 0.317667
vt 0.657359 0.402521
vt 0.678266 0.541620
vt 0.642016 0.542394
vt 0.614745 0.407720
vt 0.559388 0.397241
vt 0.601157 0.345553
vt 0.685761 0.398672
vt 0.692425 0.541194
vt 0.688490 0.806499
vt 0.288624 0.651100
vt 0.296290 0.651814
vt 0.323994 0.098928
vt 0.357509 0.069013
vt 0.388560 0.090771
vt 0.318512 0.158625
vt 0.383687 0.161565
vt 0.377309 0.238136
vt 0.311868 0.238703
vt 0.493676 0.395275
vt 0.494844 0.484501
vt 0.410702 0.387069
vt 0.302275 0.456965
vt 0.309828 0.469351
vt 0.302334 0.560430
vt 0.294656 0.554417
vt 0.324502 0.048768
vt 0.336888 0.024772
vt 0.361660 0.060456
vt 0.612254 0.235615
vt 0.643156 0.207071
vt 0.682005 0.306926
vt 0.640804 0.323099
vt 0.493986 0.322294
vt 0.329757 0.465092
vt 0.303699 0.380542
vt 0.354935 0.377883
vt 0.394457 0.085160
vt 0.477774 0.150922
vt 0.476628 0.159130
vt 0.369183 0.311276
vt 0.306669 0.310730
vt 0.560047 0.217336
vt 0.554612 0.218569
vt 0.559219 0.543190
vt 0.411877 0.377518
vt 0.414467 0.379097
vt 0.331648 0.467175
vt 0.477328 0.236629
vt 0.476966 0.316937
vt 0.681323 0.715699
vt 0.673147 0.624883
vt 0.649878 0.631613
vt 0.577600 0.257128
vt 0.478049 0.317939
vn -0.311744 -0.950165 -0.001425
vn -0.311744 -0.950165 -0.001425
vn -0.311744 -0.950165 -0.001425
vn -0.311744 -0.950165 -0.001425
vn -0.078393 -0.996504 -0.028879
vn -0.078393 -0.996504 -0.028879
vn -0.078393 -0.996504 -0.028879
vn -0.631034 -0.775214 -0.028980
vn -0.631034 -0.775214 -0.028980
vn -0.631034 -0.775214 -0.028980
vn -0.631034 -0.775214 -0.028980
vn -0.037242 -0.998739 -0.033682
vn -0.037242 -0.998739 -0.033682
vn -0.037242 -0.998738 -0.033682
vn -0.961207 0.274092 -0.030910
vn -0.961207 0.274092 -0.030910
vn -0.961207 0.274092 -0.030910
vn -0.125052 0.910127 0.395008
vn -0.125052 0.910127 0.395008
vn -0.125052 0.910127 0.395008
vn -0.070817 0.997253 0.021731
vn -0.070817 0.997253 0.021731
vn -0.070817 0.997253 0.021731
vn -0.070817 0.997253 0.021731
vn -0.115555 -0.987647 0.105833
vn -0.115555 -0.987647 0.105833
vn -0.115555 -0.987647 0.105833
vn -0.118109 0.969894 0.212969
vn -0.118109 0.969894 0.212969
vn -0.118109 0.969894 0.212969
vn -0.118109 0.969894 0.212969
vn -0.977695 0.199820 -0.064684
vn -0.977695 0.199820 -0.064684
vn -0.977695 0.199820 -0.064684
vn -0.977695 0.199820 -0.064684
vn -0.319581 0.619113 0.717334
vn -0.319581 0.619113 0.717334
vn -0.319581 0.619113 0.717334
vn -0.319581 0.619113 0.717334
vn -0.469639 -0.867681 -0.162998
vn -0.469639 -0.867681 -0.162998
vn -0.469639 -0.867681 -0.162998
vn -0.469639 -0.867681 -0.162998
vn -0.133322 -0.988387 -0.072911
vn -0.133322 -0.988387 -0.072911
vn -0.133322 -0.988387 -0.072911
vn 0.025037 0.987819 -0.153577
vn 0.025037 0.987819 -0.153577
vn 0.025037 0.987819 -0.153577
vn 0.025037 0.987819 -0.153577
vn -0.338355 0.779585 0.527033
vn -0.338355 0.779585 0.527033
vn -0.338355 0.779585 0.527033
vn -0.338355 0.779585 0.527033
vn -0.075153 0.991932 -0.102090
vn -0.075153 0.991932 -0.102090
vn -0.075153 0.991932 -0.102090
vn -0.075153 0.991932 -0.102090
vn -0.199871 0.875292 0.440359
vn -0.199871 0.875292 0.440359
vn -0.199871 0.875292 0.440359
vn -0.199871 0.875292 0.440359
vn -0.149262 -0.976628 0.154659
vn -0.149262 -0.976628 0.154659
vn -0.149262 -0.976628 0.154659
vn -0.037041 -0.998691 0.035276
vn -0.037041 -0.998691 0.035276
vn -0.037041 -0.998691 0.035276
vn -0.037041 -0.998691 0.035276
vn -0.278373 0.720539 0.635084
vn -0.278373 0.720539 0.635084
vn -0.278373 0.720539 0.635084
vn -0.278373 0.720539 0.635084
vn -0.712450 0.017357 -0.701509
vn -0.712450 0.017357 -0.701509
vn -0.712450 0.017357 -0.701509
vn -0.712450 0.017357 -0.701509
vn 0.096126 -0.499104 -0.861194
vn 0.096126 -0.499104 -0.861194
vn 0.096126 -0.499104 -0.861194
vn -0.123730 0.991899 0.028770
vn -0.123730 0.991899 0.028770
vn -0.123730 0.991899 0.028770
vn -0.123730 0.991899 0.028770
vn -0.453612 0.890203 -0.042136
vn -0.453612 0.890203 -0.042136
vn -0.453612 0.890203 -0.042136
vn -0.453612 0.890203 -0.042136
vn -0.192965 -0.980568 -0.035366
vn -0.192965 -0.980568 -0.035366
vn -0.192965 -0.980568 -0.035366
vn -0.192965 -0.980568 -0.035366
vn -0.175253 0.979999 -0.094275
vn -0.175253 0.979999 -0.094275
vn -0.175253 0.979999 -0.094275
vn -0.175253 0.979999 -0.094275
vn -0.123175 0.978364 0.166228
vn -0.123175 0.978364 0.166228
vn -0.123175 0.978364 0.166228
vn -0.123175 0.978364 0.166228
vn -0.052806 -0.996198 0.069296
vn -0.052806 -0.996198 0.069296
vn -0.052806 -0.996198 0.069296
vn -0.052806 -0.996198 0.069296
vn 0.504748 0.652494 -0.565226
vn 0.504748 0.652494 -0.565226
vn 0.504748 0.652494 -0.565226
vn 0.057544 0.993482 0.098403
vn 0.057544 0.993482 0.098403
vn 0.057544 0.993482 0.098403
vn -0.077098 0.984100 -0.160007
vn -0.077098 0.984100 -0.160007
vn -0.077098 0.984100 -0.160007
vn -0.077098 0.984100 -0.160007
vn -0.181017 0.910553 0.371653
vn -0.181017 0.910553 0.371653
vn -0.181017 0.910553 0.371653
vn -0.181017 0.910553 0.371653
vn -0.571815 0.820075 -0.022449
vn -0.571815 0.820076 -0.022449
vn -0.571815 0.820076 -0.022449
vn -0.298891 -0.954090 -0.019425
vn -0.298891 -0.954090 -0.019425
vn -0.298891 -0.954090 -0.019425
vn -0.298891 -0.954090 -0.019425
vn -0.373457 0.508913 0.775588
vn -0.373457 0.508913 0.775588
vn -0.373457 0.508913 0.775588
vn -0.373457 0.508913 0.775588
vn -0.384248 0.905787 -0.178617
vn -0.384248 0.905787 -0.178617
vn -0.384247 0.905787 -0.178617
vn -0.384248 0.905787 -0.178617
vn -0.219380 -0.974189 -0.053192
vn -0.219380 -0.974189 -0.053192
vn -0.219380 -0.974189 -0.053192
vn -0.219380 -0.974189 -0.053192
vn -0.526993 -0.849122 -0.035635
vn -0.526993 -0.849122 -0.035635
vn -0.526993 -0.849122 -0.035635
vn -0.526993 -0.849122 -0.035635
vn -0.008676 0.979018 -0.203591
vn -0.008676 0.979018 -0.203591
vn -0.008676 0.979018 -0.203591
vn -0.130222 0.977427 -0.166370
vn -0.130222 0.977427 -0.166370
vn -0.130222 0.977427 -0.166370
vn -0.095249 0.965257 0.243323
vn -0.095249 0.965257 0.243323
vn -0.095249 0.965257 0.243323
vn -0.069325 0.995625 0.062643
vn -0.069325 0.995625 0.062643
vn -0.069325 0.995625 0.062643
vn -0.069325 0.995625 0.062643
vn -0.106561 0.903674 0.414752
vn -0.106561 0.903674 0.414752
vn -0.106561 0.903674 0.414752
vn -0.574098 -0.815610 -0.072057
vn -0.574098 -0.815610 -0.072057
vn -0.574098 -0.815610 -0.072057
vn -0.574098 -0.815610 -0.072057
vn -0.254320 -0.966630 -0.030776
vn -0.254320 -0.966630 -0.030776
vn -0.254320 -0.966630 -0.030776
vn -0.254320 -0.966630 -0.030776
vn -0.017406 -0.999458 0.027936
vn -0.017406 -0.999458 0.027936
vn -0.017406 -0.999458 0.027936
vn -0.427696 -0.903677 -0.021071
vn -0.427696 -0.903677 -0.021071
vn -0.427696 -0.903677 -0.021071
vn -0.427696 -0.903677 -0.021071
vn -0.427696 -0.903677 -0.021071
vn -0.589092 -0.807612 -0.027079
vn -0.589092 -0.807612 -0.027079
vn -0.589092 -0.807612 -0.027079
vn -0.330040 -0.943858 -0.014374
vn -0.330040 -0.943858 -0.014374
vn -0.330039 -0.943858 -0.014374
vn -0.117341 0.981249 -0.152913
vn -0.117341 0.981249 -0.152913
vn -0.117341 0.981249 -0.152913
vn -0.117341 0.981249 -0.152913
vn -0.068345 0.986556 -0.148443
vn -0.068345 0.986556 -0.148443
vn -0.068345 0.986556 -0.148443
vn -0.068345 0.986556 -0.148443
vn -0.234389 0.960717 -0.148608
vn -0.234389 0.960717 -0.148608
vn -0.234389 0.960717 -0.148608
vn -0.234389 0.960717 -0.148608
vn -0.162397 -0.984712 -0.062999
vn -0.162397 -0.984712 -0.062999
vn -0.162397 -0.984712 -0.062999
vn -0.162397 -0.984712 -0.062999
vn -0.074519 -0.996706 -0.031985
vn -0.074519 -0.996707 -0.031985
vn -0.074519 -0.996707 -0.031985
vn -0.076635 -0.996004 -0.045854
vn -0.076635 -0.996004 -0.045854
vn -0.076635 -0.996004 -0.045854
vn -0.076635 -0.996004 -0.045854
vn -0.535871 0.582954 -0.610744
vn -0.535871 0.582954 -0.610744
vn -0.535871 0.582954 -0.610744
vn -0.535871 0.582954 -0.610744
vn -0.105895 0.953294 -0.282873
vn -0.105895 0.953294 -0.282873
vn -0.105895 0.953294 -0.282873
vn -0.105895 0.953294 -0.282873
vn 0.311744 -0.950165 -0.001425
vn 0.311744 -0.950165 -0.001425
vn 0.311744 -0.950165 -0.001425
vn 0.311744 -0.950165 -0.001425
vn 0.078393 -0.996504 -0.028879
vn 0.078393 -0.996504 -0.028879
vn 0.078393 -0.996504 -0.028879
vn 0.631034 -0.775214 -0.028980
vn 0.631034 -0.775214 -0.028980
vn 0.631034 -0.775214 -0.028980
vn 0.631034 -0.775214 -0.028980
vn 0.037242 -0.998738 -0.033682
vn 0.037242 -0.998738 -0.033682
vn 0.037242 -0.998739 -0.033682
vn 0.961207 0.274092 -0.030910
vn 0.961207 0.274092 -0.030910
vn 0.961207 0.274092 -0.030910
vn 0.125052 0.910127 0.395008
vn 0.125052 0.910127 0.395008
vn 0.125052 0.910127 0.395008
vn 0.070817 0.997253 0.021731
vn 0.070817 0.997253 0.021731
vn 0.070817 0.997253 0.021731
vn 0.070817 0.997253 0.021731
vn 0.115555 -0.987647 0.105833
vn 0.115555 -0.987647 0.105833
vn 0.115555 -0.987647 0.105833
vn 0.118109 0.969894 0.212969
vn 0.118109 0.969894 0.212969
vn 0.118109 0.969894 0.212969
vn 0.118109 0.969894 0.212969
vn 0.977695 0.199820 -0.064684
vn 0.977695 0.199820 -0.064684
vn 0.977695 0.199820 -0.064684
vn 0.977695 0.199820 -0.064684
vn 0.319580 0.619113 0.717334
vn 0.319580 0.619113 0.717334
vn 0.319580 0.619113 0.717334
vn 0.319580 0.619113 0.717334
vn 0.469639 -0.867681 -0.162998
vn 0.469639 -0.867681 -0.162998
vn 0.469639 -0.867681 -0.162998
vn 0.469639 -0.867681 -0.162998
vn 0.133322 -0.988387 -0.072911
vn 0.133322 -0.988387 -0.072911
vn 0.133322 -0.988387 -0.072911
vn -0.025037 0.987819 -0.153577
vn -0.025037 0.987819 -0.153577
vn -0.025037 0.987819 -0.153577
vn -0.025037 0.987819 -0.153577
vn 0.338355 0.779585 0.527033
vn 0.338355 0.779585 0.527033
vn 0.338355 0.779585 0.527033
vn 0.338355 0.779585 0.527033
vn 0.075153 0.991932 -0.102090
vn 0.075153 0.991932 -0.102090
vn 0.075153 0.991932 -0.102090
vn 0.075153 0.991932 -0.102090
vn 0.199871 0.875292 0.440358
vn 0.199871 0.875292 0.440358
vn 0.199871 0.875292 0.440358
vn 0.199871 0.875292 0.440358
vn 0.149262 -0.976628 0.154659
vn 0.149262 -0.976628 0.154659
vn 0.149262 -0.976628 0.154659
vn 0.037041 -0.998691 0.035276
vn 0.037041 -0.998691 0.035276
vn 0.037041 -0.998691 0.035276
vn 0.037041 -0.998691 0.035276
vn 0.278372 0.720539 0.635084
vn 0.278372 0.720539 0.635084
vn 0.278372 0.720539 0.635084
vn 0.278372 0.720539 0.635084
vn 0.712449 0.017356 -0.701509
vn 0.712449 0.017356 -0.701509
vn 0.712449 0.017356 -0.701509
vn 0.712449 0.017356 -0.701509
vn -0.096126 -0.499104 -0.861194
vn -0.096126 -0.499104 -0.861194
vn -0.096126 -0.499104 -0.861194
vn 0.123730 0.991899 0.028770
vn 0.123730 0.991899 0.028770
vn 0.123730 0.991899 0.028770
vn 0.123730 0.991899 0.028770
vn 0.453612 0.890203 -0.042136
vn 0.453612 0.890203 -0.042136
vn 0.453612 0.890203 -0.042136
vn 0.453612 0.890203 -0.042136
vn 0.192965 -0.980568 -0.035366
vn 0.192965 -0.980568 -0.035366
vn 0.192965 -0.980568 -0.035366
vn 0.192965 -0.980568 -0.035366
vn 0.175253 0.979999 -0.094275
vn 0.175253 0.979999 -0.094275
vn 0.175253 0.979999 -0.094275
vn 0.175253 0.979999 -0.094275
vn 0.123175 0.978364 0.166228
vn 0.123175 0.978364 0.166228
vn 0.123175 0.978364 0.166228
vn 0.123175 0.978364 0.166228
vn 0.052806 -0.996198 0.069296
vn 0.052806 -0.996198 0.069296
vn 0.052806 -0.996198 0.069296
vn 0.052806 -0.996198 0.069296
vn -0.504748 0.652494 -0.565226
vn -0.504748 0.652494 -0.565226
vn -0.504748 0.652494 -0.565226
vn -0.057544 0.993482 0.098403
vn -0.057544 0.993482 0.098403
vn -0.057544 0.993482 0.098403
vn 0.077098 0.984100 -0.160007
vn 0.077098 0.984100 -0.160007
vn 0.077098 0.984100 -0.160007
vn 0.077098 0.984100 -0.160007
vn 0.181017 0.910553 0.371653
vn 0.181017 0.910553 0.371653
vn 0.181017 0.910553 0.371653
vn 0.181017 0.910553 0.371653
vn 0.571815 0.820076 -0.022449
vn 0.571815 0.820076 -0.022449
vn 0.571815 0.820076 -0.022449
vn 0.298891 -0.954090 -0.019425
vn 0.298891 -0.954090 -0.019425
vn 0.298891 -0.954090 -0.019425
vn 0.298891 -0.954090 -0.019425
vn 0.373457 0.508913 0.775588
vn 0.373457 0.508913 0.775588
vn 0.373457 0.508913 0.775588
vn 0.373457 0.508913 0.775588
vn 0.384248 0.905787 -0.178617
vn 0.384248 0.905787 -0.178617
vn 0.384248 0.905787 -0.178617
vn 0.384248 0.905787 -0.178617
vn 0.219380 -0.974189 -0.053192
vn 0.219380 -0.974189 -0.053192
vn 0.219380 -0.974189 -0.053192
vn 0.219380 -0.974189 -0.053192
vn 0.526993 -0.849122 -0.035635
vn 0.526993 -0.849122 -0.035635
vn 0.526993 -0.849122 -0.035635
vn 0.526993 -0.849122 -0.035635
vn 0.008676 0.979018 -0.203591
vn 0.008676 0.979018 -0.203591
vn 0.008676 0.979018 -0.203591
vn 0.130222 0.977427 -0.166370
vn 0.130222 0.977427 -0.166370
vn 0.130222 0.977427 -0.166370
vn 0.095249 0.965257 0.243323
vn 0.095249 0.965257 0.243323
vn 0.095249 0.965257 0.243323
vn 0.069325 0.995625 0.062643
vn 0.069325 0.995625 0.062643
vn 0.069325 0.995625 0.062643
vn 0.069325 0.995625 0.062643
vn 0.106560 0.903674 0.414752
vn 0.106560 0.903674 0.414752
vn 0.106560 0.903674 0.414752
vn 0.574098 -0.815610 -0.072057
vn 0.574098 -0.815610 -0.072057
vn 0.574098 -0.815610 -0.072057
vn 0.574098 -0.815610 -0.072057
vn 0.254320 -0.966630 -0.030776
vn 0.254320 -0.966630 -0.030776
vn 0.254320 -0.966630 -0.030776
vn 0.254320 -0.966630 -0.030776
vn 0.017406 -0.999458 0.027936
vn 0.017406 -0.999458 0.027936
vn 0.017406 -0.999458 0.027936
vn 0.427696 -0.903677 -0.021071
vn 0.427696 -0.903677 -0.021071
vn 0.427696 -0.903677 -0.021071
vn 0.427696 -0.903677 -0.021071
vn 0.427696 -0.903677 -0.021071
vn 0.589092 -0.807612 -0.027079
vn 0.589092 -0.807612 -0.027079
vn 0.589092 -0.807612 -0.027079
vn 0.330040 -0.943858 -0.014374
vn 0.330040 -0.943858 -0.014374
vn 0.330040 -0.943858 -0.014374
vn 0.117341 0.981249 -0.152913
vn 0.117341 0.981249 -0.152913
vn 0.117341 0.981249 -0.152913
vn 0.117341 0.981249 -0.152913
vn 0.068345 0.986556 -0.148443
vn 0.068345 0.986556 -0.148443
vn 0.068345 0.986556 -0.148443
vn 0.068345 0.986556 -0.148443
vn 0.234389 0.960717 -0.148608
vn 0.234389 0.960717 -0.148608
vn 0.234389 0.960717 -0.148608
vn 0.234389 0.960717 -0.148608
vn 0.162397 -0.984712 -0.062999
vn 0.162397 -0.984712 -0.062999
vn 0.162397 -0.984712 -0.062999
vn 0.162397 -0.984712 -0.062999
vn 0.074519 -0.996706 -0.031985
vn 0.074519 -0.996707 -0.031985
vn 0.074519 -0.996706 -0.031985
vn 0.076635 -0.996004 -0.045854
vn 0.076635 -0.996004 -0.045854
vn 0.076635 -0.996004 -0.045854
vn 0.076635 -0.996004 -0.045854
vn 0.535870 0.582954 -0.610743
vn 0.535870 0.582954 -0.610743
vn 0.535870 0.582954 -0.610743
vn 0.535870 0.582954 -0.610743
vn 0.105895 0.953294 -0.282873
vn 0.105895 0.953294 -0.282873
vn 0.105895 0.953294 -0.282873
vn 0.105895 0.953294 -0.282873
vn -0.966315 0.249086 -0.064741
vn -0.966315 0.249086 -0.064741
vn -0.966315 0.249086 -0.064741
vn -0.966315 0.249086 -0.064741
vn -0.316730 -0.947990 -0.031586
vn -0.316730 -0.947990 -0.031586
vn -0.316730 -0.947990 -0.031586
vn -0.316730 -0.947990 -0.031586
vn 0.316730 -0.947990 -0.031586
vn 0.316730 -0.947990 -0.031586
vn 0.316730 -0.947990 -0.031586
vn 0.316730 -0.947990 -0.031586
vn 0.966315 0.249086 -0.064741
vn 0.966315 0.249086 -0.064741
vn 0.966315 0.249086 -0.064741
vn 0.966315 0.249086 -0.064741
vn 0.509203 0.859569 -0.043043
vn 0.509203 0.859569 -0.043043
vn 0.509203 0.859569 -0.043043
vn 0.509203 0.859569 -0.043043
vn -0.509203 0.859569 -0.043043
vn -0.509203 0.859569 -0.043043
vn -0.509203 0.859569 -0.043043
vn -0.509203 0.859569 -0.043043
s off
g Ray_fish
usemtl polySurface2SG1
f 48/1/1 49/2/2 45/3/3 3/4/4
f 17/5/5 3/4/6 55/6/7
f 45/3/8 49/2/9 50/7/10 46/8/11
f 14/9/12 2/10/13 39/11/14
f 8/12/15 2/13/16 14/14/17
f 29/15/18 18/16/19 44/17/20
f 21/18/21 26/19/22 42/20/23 41/21/24
f 30/22/25 10/23/26 9/24/27
f 29/15/28 21/18/29 41/21/30 18/16/31
f 7/25/32 99/26/33 100/27/34 31/28/35
f 6/29/36 44/17/37 16/30/38 15/31/39
f 16/32/40 28/33/41 33/34/42 15/35/43
f 30/22/44 1/36/45 10/23/46
f 24/37/47 52/38/48 53/39/49 7/25/50
f 18/16/51 11/40/52 1/41/53 23/42/54
f 42/20/55 26/19/56 4/43/57 40/44/58
f 10/45/59 1/41/60 11/40/61 57/46/62
f 12/47/63 15/35/64 20/48/65
f 36/49/66 48/1/67 3/4/68 17/5/69
f 16/30/70 44/17/71 18/16/72 23/42/73
f 24/37/74 13/50/75 36/51/76 43/52/77
f 13/50/78 24/37/79 31/28/80
f 26/19/81 21/18/82 22/53/83 25/54/84
f 104/55/85 99/26/86 7/25/87 27/56/88
f 45/3/89 28/33/90 55/6/91 3/4/92
f 4/43/93 26/19/94 25/54/95 37/57/96
f 32/58/97 22/53/98 21/18/99 29/15/100
f 17/5/101 30/22/102 9/24/103 36/49/104
f 31/28/105 24/37/106 7/25/107
f 57/46/108 11/40/109 19/59/110
f 40/44/111 56/60/112 19/59/113 42/20/114
f 29/15/115 6/29/116 34/61/117 32/58/118
f 8/12/119 35/62/120 2/13/121
f 46/8/122 50/7/123 51/63/124 47/64/125
f 15/31/126 12/65/127 34/61/128 6/29/129
f 27/56/130 7/25/131 53/39/132 54/66/133
f 20/48/134 15/35/135 33/34/136 38/67/137
f 100/68/138 101/69/139 5/70/140 31/71/141
f 56/60/142 57/46/143 19/59/144
f 24/37/145 43/52/146 52/38/147
f 41/21/148 11/40/149 18/16/150
f 42/20/151 19/59/152 11/40/153 41/21/154
usemtl lambert4SG
f 6/29/155 29/15/156 44/17/157
usemtl polySurface2SG1
f 33/34/158 28/33/159 45/3/160 46/8/161
f 47/64/162 38/67/163 33/34/164 46/8/165
f 13/72/166 48/1/167 36/49/168
f 31/71/169 5/70/170 49/2/171 48/1/172 13/72/173
f 50/7/174 49/2/175 5/70/176
f 5/70/177 51/63/178 50/7/179
f 40/44/180 52/38/181 43/52/182 56/60/183
f 53/39/184 52/38/185 40/44/186 4/43/187
f 54/66/188 53/39/189 4/43/190 37/57/191
f 28/33/192 16/32/193 23/73/194 55/6/195
f 17/5/196 55/6/197 23/73/198
f 30/22/199 17/5/200 23/73/201 1/36/202
f 9/74/203 56/60/204 43/52/205 36/51/206
f 9/74/207 10/45/208 57/46/209 56/60/210
f 89/75/211 92/76/212 91/77/213 59/78/214
f 71/79/215 96/80/216 59/78/217
f 89/75/218 90/81/219 93/82/220 92/76/221
f 68/83/222 39/11/223 2/10/224
f 63/84/225 68/85/226 2/13/227
f 79/86/228 88/87/229 72/88/230
f 74/89/231 85/90/232 86/91/233 77/92/234
f 80/93/235 64/94/236 65/95/237
f 79/86/238 72/88/239 85/90/240 74/89/241
f 62/96/242 81/97/243 102/98/244 103/99/245
f 61/100/246 69/101/247 70/102/248 88/87/249
f 70/103/250 69/104/251 82/105/252 78/106/253
f 80/93/254 65/95/255 58/107/256
f 76/108/257 62/96/258 95/109/259 94/110/260
f 72/88/261 75/111/262 58/112/263 66/113/264
f 86/91/265 84/114/266 60/115/267 77/92/268
f 65/116/269 98/117/270 66/113/271 58/112/272
f 12/47/273 20/48/274 69/104/275
f 83/118/276 71/79/277 59/78/278 91/77/279
f 70/102/280 75/111/281 72/88/282 88/87/283
f 76/108/284 87/119/285 83/120/286 67/121/287
f 67/121/288 81/97/289 76/108/290
f 77/92/291 25/54/292 22/53/293 74/89/294
f 103/99/295 104/55/296 27/56/297 62/96/298
f 78/106/299 89/75/300 59/78/301 96/80/302
f 60/115/303 37/57/304 25/54/305 77/92/306
f 32/58/307 79/86/308 74/89/309 22/53/310
f 71/79/311 83/118/312 64/94/313 80/93/314
f 81/97/315 62/96/316 76/108/317
f 98/117/318 73/122/319 66/113/320
f 84/114/321 86/91/322 73/122/323 97/123/324
f 79/86/325 32/58/326 34/61/327 61/100/328
f 63/84/329 2/13/330 35/62/331
f 90/81/332 47/64/333 51/63/334 93/82/335
f 69/101/336 61/100/337 34/61/338 12/65/339
f 27/56/340 54/66/341 95/109/342 62/96/343
f 20/48/344 38/67/345 82/105/346 69/104/347
f 102/124/348 81/125/349 5/70/350 101/69/351
f 97/123/352 73/122/353 98/117/354
f 76/108/355 94/110/356 87/119/357
f 85/90/358 72/88/359 66/113/360
f 86/91/361 85/90/362 66/113/363 73/122/364
usemtl lambert4SG
f 61/100/365 88/87/366 79/86/367
usemtl polySurface2SG1
f 82/105/368 90/81/369 89/75/370 78/106/371
f 47/64/372 90/81/373 82/105/374 38/67/375
f 67/126/376 83/118/377 91/77/378
f 81/125/379 67/126/380 91/77/381 92/76/382 5/70/383
f 93/82/384 5/70/385 92/76/386
f 5/70/387 93/82/388 51/63/389
f 84/114/390 97/123/391 87/119/392 94/110/393
f 95/109/394 60/115/395 84/114/396 94/110/397
f 54/66/398 37/57/399 60/115/400 95/109/401
f 70/103/402 78/106/403 96/80/404 75/127/405
f 71/79/406 75/127/407 96/80/408
f 80/93/409 58/107/410 75/127/411 71/79/412
f 64/128/413 83/120/414 87/119/415 97/123/416
f 64/128/417 97/123/418 98/117/419 65/116/420
f 99/26/421 8/12/422 14/14/423 100/27/424
f 14/9/425 39/11/426 101/69/427 100/68/428
f 68/83/429 102/124/430 101/69/431 39/11/432
f 103/99/433 102/98/434 68/85/435 63/84/436
f 63/84/437 35/62/438 104/55/439 103/99/440
f 8/12/441 99/26/442 104/55/443 35/62/444
